<?xml version="1.0" standalone="no"?><!DOCTYPE svg PUBLIC "-//W3C//DTD SVG 1.1//EN" "http://www.w3.org/Graphics/SVG/1.1/DTD/svg11.dtd"><svg t="1527429876111" class="icon" style="" viewBox="0 0 1024 1024" version="1.1" xmlns="http://www.w3.org/2000/svg" p-id="11068" xmlns:xlink="http://www.w3.org/1999/xlink" width="32" height="32"><defs><style type="text/css"></style></defs><path d="M190.87872 127.1552l642.05312 0c34.82624 0 66.56 14.2848 89.53344 37.26336l0.08704 0.08704c22.97856 22.99392 37.26336 54.69184 37.26336 89.5488l0 571.54048c0 34.8416-14.2848 66.53952-37.26336 89.53344l-0.08704 0.1024c-22.97344 22.97856-54.7072 37.248-89.53344 37.248l-642.05312 0c-34.8416 0-66.53952-14.26944-89.53344-37.248l-0.08704-0.1024c-22.97856-22.99392-37.26336-54.69184-37.26336-89.53344l0-571.54048c0-34.92864 14.26944-66.65728 37.26336-89.63584C124.2368 141.42464 155.96544 127.1552 190.87872 127.1552L190.87872 127.1552zM832.93184 177.62816 190.87872 177.62816c-20.97664 0-40.0896 8.6016-53.95456 22.45632-13.8496 13.86496-22.45632 32.9728-22.45632 53.96992l0 571.54048c0 21.02272 8.576 40.14592 22.41024 53.99552 13.86496 13.83424 32.9728 22.4256 53.99552 22.4256l642.05312 0c21.00736 0 40.13056-8.59136 53.98016-22.4256 13.8496-13.8496 22.4256-32.9728 22.4256-53.99552L909.33248 254.0544c0-21.03808-8.576-40.14592-22.4256-54.01088C873.06752 186.20928 853.9392 177.62816 832.93184 177.62816z" p-id="11069"></path><path d="M615.10144 320.4608c-40.6016 0-78.34624 20.36736-103.1936 53.94944C487.07584 340.81792 449.3312 320.4608 408.71424 320.4608c-73.18528 0-132.73088 65.09568-132.73088 145.12128 0 47.73888 21.3248 81.2288 38.47168 108.13952 49.82272 78.1568 175.08864 175.42144 180.39808 179.52256 5.10976 3.95264 11.0848 5.92896 17.0496 5.92896 5.97504 0 11.94496-1.97632 17.0496-5.92896 5.31456-4.10112 130.59072-101.36576 180.39808-179.52256 17.152-26.91072 38.48192-60.40064 38.48192-108.13952C747.8272 385.55648 688.2816 320.4608 615.10144 320.4608z" p-id="11070"></path></svg>