<?xml version="1.0" standalone="no"?><!DOCTYPE svg PUBLIC "-//W3C//DTD SVG 1.1//EN" "http://www.w3.org/Graphics/SVG/1.1/DTD/svg11.dtd"><svg t="1527230289879" class="icon" style="" viewBox="0 0 1024 1024" version="1.1" xmlns="http://www.w3.org/2000/svg" p-id="2778" xmlns:xlink="http://www.w3.org/1999/xlink" width="200" height="200"><defs><style type="text/css"></style></defs><path d="M508.8 498.133333c-86.08 0-156.053333-70.186667-156.053333-156.48 0-86.293333 69.973333-156.48 156.053333-156.48s156.16 70.186667 156.16 156.48S594.88 498.133333 508.8 498.133333z m0-272.64c-64 0-115.946667 52.16-115.946667 116.266667s52.053333 116.266667 115.946667 116.266667c64 0 116.053333-52.16 116.053333-116.266667-0.106667-64.106667-52.16-116.266667-116.053333-116.266667z" fill="" p-id="2779"></path><path d="M512 1007.146667C239.573333 1007.146667 17.92 785.066667 17.92 512S239.573333 16.853333 512 16.853333C784.426667 16.853333 1006.08 238.933333 1006.08 512c0 134.933333-53.226667 261.013333-149.76 355.093333-8 7.786667-20.586667 7.573333-28.373333-0.426666-7.786667-8-7.573333-20.693333 0.426666-28.373334 88.746667-86.4 137.6-202.346667 137.6-326.293333 0-250.88-203.626667-455.04-453.973333-455.04S58.026667 261.12 58.026667 512 261.653333 967.04 512 967.04c54.72 0 108.16-9.6 158.933333-28.693333 10.453333-3.946667 21.973333 1.386667 25.813334 11.733333 3.84 10.453333-1.386667 21.973333-11.733334 25.813333-55.253333 20.8-113.493333 31.253333-173.013333 31.253334z" fill="" p-id="2780"></path><path d="M969.066667 994.346667c-4.906667 0-9.92-1.813333-13.76-5.546667L828.586667 867.306667c-8.106667-7.68-8.426667-20.373333-0.746667-28.373334 7.573333-8 20.373333-8.426667 28.373333-0.746666l126.72 121.493333c8.106667 7.68 8.426667 20.373333 0.746667 28.373333-3.733333 4.053333-9.066667 6.293333-14.613333 6.293334zM508.8 836.266667c-216.213333 0-247.253333-119.04-248.426667-124.053334-0.32-1.493333-0.533333-3.093333-0.533333-4.693333 0-137.6 111.68-249.493333 248.96-249.493333s248.96 111.893333 248.96 249.493333c0 1.6-0.213333 3.093333-0.533333 4.693333C755.946667 717.226667 725.013333 836.266667 508.8 836.266667zM299.946667 704.533333c4.8 13.973333 39.253333 91.52 208.853333 91.52s204.053333-77.546667 208.853333-91.52C716.053333 590.506667 622.933333 498.133333 508.8 498.133333c-114.24 0-207.36 92.373333-208.853333 206.4z m-20.053334 2.986667h0.213334-0.213334z" fill="" p-id="2781"></path></svg>